<svg xmlns="http://www.w3.org/2000/svg" xmlns:xlink="http://www.w3.org/1999/xlink" version="1.1" x="0px" y="0px" viewBox="0 0 100 125" enable-background="new 0 0 100 100" xml:space="preserve"><path fill="#000000" d="M91.15,66.236L51.044,51.528V10.58c0-0.579-0.468-1.045-1.044-1.045c-0.577,0-1.045,0.468-1.045,1.045  v40.961L8.852,66.233c-0.784,0.288-1.321,1.016-1.368,1.848s0.406,1.612,1.154,1.986l40.4,20.18c0.295,0.146,0.613,0.22,0.933,0.22  c0.321,0,0.64-0.073,0.934-0.22l40.457-20.18c0.749-0.372,1.201-1.154,1.154-1.986S91.935,66.521,91.15,66.236z M49.972,88.376  L9.57,68.196l39.385-14.431v13.542l-6.595-6.595c-0.409-0.41-1.069-0.41-1.479,0c-0.408,0.408-0.408,1.07,0,1.479l8.377,8.377  c0.098,0.096,0.212,0.176,0.343,0.229c0.128,0.052,0.26,0.078,0.398,0.078s0.27-0.026,0.398-0.078  c0.131-0.053,0.244-0.133,0.342-0.229l8.38-8.377c0.408-0.409,0.408-1.071,0-1.479c-0.409-0.41-1.07-0.41-1.481,0l-6.595,6.595  V53.753l39.39,14.443L49.972,88.376z"/><text x="0" y="115" fill="#000000" font-size="5px" font-weight="bold" font-family="'Helvetica Neue', Helvetica, Arial-Unicode, Arial, Sans-serif">Created by Sherrinford</text><text x="0" y="120" fill="#000000" font-size="5px" font-weight="bold" font-family="'Helvetica Neue', Helvetica, Arial-Unicode, Arial, Sans-serif">from the Noun Project</text></svg>